<svg xmlns="http://www.w3.org/2000/svg" height="512" width="512"><path d="M417.77 226.65v241.667c0 19.982-16.2 36.18-36.18 36.18H84.354c-19.982 0-36.18-16.2-36.18-36.18V89.74c0-19.988 16.203-36.18 36.18-36.18h160.32z" fill="#f4f4ec"/><path d="M130.413 458.44c-19.982 0-36.18-16.2-36.18-36.18V43.68c0-19.988 16.203-36.18 36.18-36.18h160.32c27.563 0 173.095 145.53 173.095 173.09v241.667c0 19.982-16.2 36.18-36.18 36.18H130.413z" fill="#fafad9"/><path d="M463.83 180.595V195.9c0-32.222-26.13-58.352-58.352-58.352h-35.515c-19.978 0-36.18-16.203-36.18-36.18V65.852c0-32.222-26.13-58.352-58.352-58.352h15.305a103.93 103.93 0 0 1 73.483 30.436l69.176 69.176c19.486 19.486 30.436 45.925 30.436 73.483z" fill="#f4f4ec"/><path d="M243 283.727V389.5c0 4.563 3.7 8.262 8.262 8.262H306.8c4.563 0 8.262-3.7 8.262-8.262V283.727h23.603c7.36 0 11.047-8.9 5.842-14.105l-52.74-52.74c-7.03-7.03-18.426-7.03-25.455 0l-52.74 52.74c-5.205 5.205-1.52 14.105 5.842 14.105zm-28.364-95.874h128.77c8.892 0 16.1-7.2 16.1-16.1v-.442c0-8.892-7.2-16.1-16.1-16.1h-128.77c-8.892 0-16.1 7.2-16.1 16.1v.442c0 8.893 7.208 16.1 16.1 16.1z" fill="#939041"/><path d="M463.83 278.5a7.5 7.5 0 0 0-7.5 7.5v136.258c0 15.815-12.866 28.68-28.68 28.68H130.414c-15.815 0-28.682-12.866-28.682-28.68V43.68c0-15.815 12.867-28.68 28.682-28.68h47.35a7.5 7.5 0 1 0 0-15h-47.35c-24.086 0-43.682 19.595-43.682 43.68v2.38H84.35c-24.084 0-43.68 19.594-43.68 43.68v378.58c0 24.085 19.595 43.68 43.68 43.68H381.6c24.084 0 43.68-19.594 43.68-43.68v-2.382h2.378c24.086 0 43.68-19.595 43.68-43.68V286a7.5 7.5 0 0 0-7.5-7.5zm-53.56 189.82c0 15.813-12.865 28.68-28.68 28.68H84.35c-15.813 0-28.68-12.865-28.68-28.68V89.74c0-15.814 12.865-28.68 28.68-28.68h2.382v361.196c0 24.086 19.596 43.68 43.682 43.68H410.27zm61.06-287.72c-.001-29.76-11.6-57.74-32.633-78.78L369.52 32.633C348.476 11.6 320.496 0 290.733 0h-82.97a7.5 7.5 0 1 0 0 15h67.664c28.04 0 50.852 22.812 50.852 50.852v35.515c0 24.086 19.595 43.68 43.68 43.68h35.515c28.04 0 50.852 22.812 50.852 50.852V256a7.5 7.5 0 1 0 15 0v-75.4zm-65.852-50.542h-35.515c-15.815 0-28.68-12.866-28.68-28.68V65.852c0-17.52-6.877-33.463-18.074-45.273 13.277 4.735 25.444 12.4 35.707 22.66l69.176 69.177c10.262 10.262 17.926 22.43 22.66 35.706-11.8-11.197-27.755-18.075-45.274-18.075zM251.27 405.272h55.52c8.7 0 15.763-7.07 15.763-15.762v-98.282h16.103c6.398 0 12.114-3.82 14.563-9.73s1.107-12.654-3.417-17.178l-52.74-52.74a25.33 25.33 0 0 0-36.062 0l-52.74 52.74c-4.524 4.524-5.865 11.267-3.417 17.178s8.165 9.73 14.563 9.73h16.103V389.5c-.002 8.7 7.07 15.762 15.76 15.762zm-31.865-129.045c-.2 0-.5 0-.704-.47s.03-.696.165-.83l52.74-52.74a10.43 10.43 0 0 1 14.848 0l52.74 52.74c.135.135.36.36.165.83s-.514.47-.704.47h-23.603a7.5 7.5 0 0 0-7.5 7.5V389.5c0 .42-.342.762-.763.762h-55.52c-.42 0-.762-.342-.762-.762V283.727a7.5 7.5 0 0 0-7.5-7.5zm-4.76-80.874h128.77c13.014 0 23.6-10.587 23.6-23.6v-.442c0-13.014-10.587-23.6-23.6-23.6h-128.77c-13.014 0-23.6 10.587-23.6 23.6v.442c-.001 13.014 10.587 23.6 23.6 23.6zm-8.602-24.043a8.61 8.61 0 0 1 8.6-8.6h128.77a8.61 8.61 0 0 1 8.6 8.6v.442a8.61 8.61 0 0 1-8.6 8.6h-128.77a8.61 8.61 0 0 1-8.6-8.6z"/></svg>